<mxfile host="app.diagrams.net" modified="2023-11-02T20:00:43.587Z" agent="Mozilla/5.0 (Windows NT 10.0; Win64; x64) AppleWebKit/537.36 (KHTML, like Gecko) Chrome/118.0.0.0 Safari/537.36" etag="4jEo3ArdCGoYPjnn-CSE" version="22.0.8" type="github">
  <diagram name="Page-1" id="dNxn2SBZQc8UCOjl8fBD">
    <mxGraphModel dx="1900" dy="1691" grid="1" gridSize="10" guides="1" tooltips="1" connect="1" arrows="1" fold="1" page="1" pageScale="1" pageWidth="850" pageHeight="1100" background="none" math="0" shadow="0">
      <root>
        <mxCell id="0" />
        <mxCell id="1" parent="0" />
        <mxCell id="ja6C-_LrpfAijuinorAN-27" value="" style="endArrow=none;dashed=1;html=1;dashPattern=1 3;strokeWidth=2;rounded=0;" edge="1" parent="1">
          <mxGeometry width="50" height="50" relative="1" as="geometry">
            <mxPoint y="-440" as="sourcePoint" />
            <mxPoint x="850" y="-440" as="targetPoint" />
          </mxGeometry>
        </mxCell>
        <mxCell id="ja6C-_LrpfAijuinorAN-26" value="" style="endArrow=none;dashed=1;html=1;dashPattern=1 3;strokeWidth=2;rounded=0;" edge="1" parent="1">
          <mxGeometry width="50" height="50" relative="1" as="geometry">
            <mxPoint y="-560" as="sourcePoint" />
            <mxPoint x="850" y="-560" as="targetPoint" />
          </mxGeometry>
        </mxCell>
        <mxCell id="ja6C-_LrpfAijuinorAN-25" value="" style="endArrow=none;dashed=1;html=1;dashPattern=1 3;strokeWidth=2;rounded=0;" edge="1" parent="1">
          <mxGeometry width="50" height="50" relative="1" as="geometry">
            <mxPoint y="-680" as="sourcePoint" />
            <mxPoint x="850" y="-680" as="targetPoint" />
          </mxGeometry>
        </mxCell>
        <mxCell id="ja6C-_LrpfAijuinorAN-24" value="" style="endArrow=none;dashed=1;html=1;dashPattern=1 3;strokeWidth=2;rounded=0;" edge="1" parent="1">
          <mxGeometry width="50" height="50" relative="1" as="geometry">
            <mxPoint y="-800" as="sourcePoint" />
            <mxPoint x="850" y="-800" as="targetPoint" />
          </mxGeometry>
        </mxCell>
        <mxCell id="ja6C-_LrpfAijuinorAN-23" value="" style="endArrow=none;dashed=1;html=1;dashPattern=1 3;strokeWidth=2;rounded=0;" edge="1" parent="1">
          <mxGeometry width="50" height="50" relative="1" as="geometry">
            <mxPoint y="-920" as="sourcePoint" />
            <mxPoint x="850" y="-920" as="targetPoint" />
          </mxGeometry>
        </mxCell>
        <mxCell id="ja6C-_LrpfAijuinorAN-1" value="Start" style="rounded=0;whiteSpace=wrap;html=1;" vertex="1" parent="1">
          <mxGeometry x="350" y="-1090" width="100" height="30" as="geometry" />
        </mxCell>
        <mxCell id="ja6C-_LrpfAijuinorAN-2" value="" style="endArrow=classic;html=1;rounded=0;exitX=0.5;exitY=1;exitDx=0;exitDy=0;" edge="1" parent="1" source="ja6C-_LrpfAijuinorAN-1">
          <mxGeometry width="50" height="50" relative="1" as="geometry">
            <mxPoint x="400" y="-960" as="sourcePoint" />
            <mxPoint x="400" y="-1010" as="targetPoint" />
            <Array as="points" />
          </mxGeometry>
        </mxCell>
        <mxCell id="ja6C-_LrpfAijuinorAN-3" value="NOVEMBER" style="rounded=0;whiteSpace=wrap;html=1;" vertex="1" parent="1">
          <mxGeometry y="-1000" width="120" height="60" as="geometry" />
        </mxCell>
        <mxCell id="ja6C-_LrpfAijuinorAN-4" value="DECEMBER" style="rounded=0;whiteSpace=wrap;html=1;" vertex="1" parent="1">
          <mxGeometry y="-880" width="120" height="60" as="geometry" />
        </mxCell>
        <mxCell id="ja6C-_LrpfAijuinorAN-5" value="JANUARY" style="rounded=0;whiteSpace=wrap;html=1;" vertex="1" parent="1">
          <mxGeometry y="-760" width="120" height="60" as="geometry" />
        </mxCell>
        <mxCell id="ja6C-_LrpfAijuinorAN-6" value="FEBRUARY" style="rounded=0;whiteSpace=wrap;html=1;" vertex="1" parent="1">
          <mxGeometry y="-640" width="120" height="60" as="geometry" />
        </mxCell>
        <mxCell id="ja6C-_LrpfAijuinorAN-7" value="MARCH" style="rounded=0;whiteSpace=wrap;html=1;" vertex="1" parent="1">
          <mxGeometry y="-520" width="120" height="60" as="geometry" />
        </mxCell>
        <mxCell id="ja6C-_LrpfAijuinorAN-8" value="" style="shape=flexArrow;endArrow=classic;html=1;rounded=0;exitX=1;exitY=0.5;exitDx=0;exitDy=0;" edge="1" parent="1" source="ja6C-_LrpfAijuinorAN-3">
          <mxGeometry width="50" height="50" relative="1" as="geometry">
            <mxPoint x="400" y="-860" as="sourcePoint" />
            <mxPoint x="240" y="-970" as="targetPoint" />
          </mxGeometry>
        </mxCell>
        <mxCell id="ja6C-_LrpfAijuinorAN-9" value="" style="shape=flexArrow;endArrow=classic;html=1;rounded=0;exitX=1;exitY=0.5;exitDx=0;exitDy=0;" edge="1" parent="1">
          <mxGeometry width="50" height="50" relative="1" as="geometry">
            <mxPoint x="120" y="-490.5" as="sourcePoint" />
            <mxPoint x="240" y="-490.5" as="targetPoint" />
          </mxGeometry>
        </mxCell>
        <mxCell id="ja6C-_LrpfAijuinorAN-10" value="" style="shape=flexArrow;endArrow=classic;html=1;rounded=0;exitX=1;exitY=0.5;exitDx=0;exitDy=0;" edge="1" parent="1">
          <mxGeometry width="50" height="50" relative="1" as="geometry">
            <mxPoint x="120" y="-610.5" as="sourcePoint" />
            <mxPoint x="240" y="-610.5" as="targetPoint" />
          </mxGeometry>
        </mxCell>
        <mxCell id="ja6C-_LrpfAijuinorAN-11" value="" style="shape=flexArrow;endArrow=classic;html=1;rounded=0;exitX=1;exitY=0.5;exitDx=0;exitDy=0;" edge="1" parent="1">
          <mxGeometry width="50" height="50" relative="1" as="geometry">
            <mxPoint x="120" y="-730.5" as="sourcePoint" />
            <mxPoint x="240" y="-730.5" as="targetPoint" />
          </mxGeometry>
        </mxCell>
        <mxCell id="ja6C-_LrpfAijuinorAN-12" value="" style="shape=flexArrow;endArrow=classic;html=1;rounded=0;exitX=1.003;exitY=0.623;exitDx=0;exitDy=0;exitPerimeter=0;" edge="1" parent="1" source="ja6C-_LrpfAijuinorAN-4">
          <mxGeometry width="50" height="50" relative="1" as="geometry">
            <mxPoint x="160" y="-930" as="sourcePoint" />
            <mxPoint x="240" y="-840" as="targetPoint" />
          </mxGeometry>
        </mxCell>
        <mxCell id="ja6C-_LrpfAijuinorAN-13" value="" style="shape=parallelogram;perimeter=parallelogramPerimeter;whiteSpace=wrap;html=1;fixedSize=1;" vertex="1" parent="1">
          <mxGeometry x="280" y="-1000" width="200" height="540" as="geometry" />
        </mxCell>
        <mxCell id="ja6C-_LrpfAijuinorAN-15" value="Striver AtoZ Sheet" style="ellipse;whiteSpace=wrap;html=1;" vertex="1" parent="1">
          <mxGeometry x="320" y="-910" width="120" height="80" as="geometry" />
        </mxCell>
        <mxCell id="ja6C-_LrpfAijuinorAN-17" value="" style="endArrow=classic;html=1;rounded=0;exitX=0.283;exitY=0.938;exitDx=0;exitDy=0;exitPerimeter=0;" edge="1" parent="1" source="ja6C-_LrpfAijuinorAN-15">
          <mxGeometry width="50" height="50" relative="1" as="geometry">
            <mxPoint x="400" y="-760" as="sourcePoint" />
            <mxPoint x="354" y="-750" as="targetPoint" />
          </mxGeometry>
        </mxCell>
        <mxCell id="ja6C-_LrpfAijuinorAN-18" value="IF NO&lt;br&gt;&amp;nbsp;Contest" style="text;html=1;strokeColor=none;fillColor=none;align=center;verticalAlign=middle;whiteSpace=wrap;rounded=0;rotation=-90;" vertex="1" parent="1">
          <mxGeometry x="310" y="-810" width="60" height="30" as="geometry" />
        </mxCell>
        <mxCell id="ja6C-_LrpfAijuinorAN-19" value="4Q/Day" style="shape=trapezoid;perimeter=trapezoidPerimeter;whiteSpace=wrap;html=1;fixedSize=1;" vertex="1" parent="1">
          <mxGeometry x="310" y="-730" width="100" height="40" as="geometry" />
        </mxCell>
        <mxCell id="ja6C-_LrpfAijuinorAN-20" value="" style="endArrow=classic;html=1;rounded=0;exitX=1;exitY=1;exitDx=0;exitDy=0;" edge="1" parent="1" source="ja6C-_LrpfAijuinorAN-15">
          <mxGeometry width="50" height="50" relative="1" as="geometry">
            <mxPoint x="364" y="-835" as="sourcePoint" />
            <mxPoint x="422" y="-580" as="targetPoint" />
          </mxGeometry>
        </mxCell>
        <mxCell id="ja6C-_LrpfAijuinorAN-21" value="IF Contest" style="text;html=1;strokeColor=none;fillColor=none;align=center;verticalAlign=middle;whiteSpace=wrap;rounded=0;rotation=-90;" vertex="1" parent="1">
          <mxGeometry x="380" y="-640" width="60" height="30" as="geometry" />
        </mxCell>
        <mxCell id="ja6C-_LrpfAijuinorAN-22" value="3Q/Day" style="shape=trapezoid;perimeter=trapezoidPerimeter;whiteSpace=wrap;html=1;fixedSize=1;" vertex="1" parent="1">
          <mxGeometry x="330" y="-570" width="120" height="60" as="geometry" />
        </mxCell>
        <mxCell id="ja6C-_LrpfAijuinorAN-28" value="420 Questions Total&lt;br&gt;- EASY: 20min&lt;br&gt;-MED:40min&lt;br&gt;-HARD:90min" style="text;html=1;strokeColor=none;fillColor=none;align=center;verticalAlign=middle;whiteSpace=wrap;rounded=0;" vertex="1" parent="1">
          <mxGeometry x="320" y="-990" width="140" height="60" as="geometry" />
        </mxCell>
      </root>
    </mxGraphModel>
  </diagram>
</mxfile>
